<?xml version="1.0" encoding="UTF-8"?>
<svg id="Layer_1" data-name="Layer 1" xmlns="http://www.w3.org/2000/svg" viewBox="0 0 455.42 529.79">
  <defs>
    <style>
      .cls-1 {
        fill: #fff;
        stroke-width: 0px;
      }
    </style>
  </defs>
  <path class="cls-1" d="m133.14,236.8c-13-22.12-19.35-51.75-19.35-82.58s0-89.92,0-89.92l43.57-25.15v21.41l35.72-20.62v-21.41L225.18,0l32.08,18.52v21.41l35.72,20.63v-21.42l43.55,25.15v89.92c0,1.49-.02,2.98-.05,4.46-9.51-5.48-43.51-25.11-43.51-25.11v-22.12l-67.81-39.14s-48.49,28-67.8,39.14c.24,12.51-.76,48.04,1.02,59.88,0,0,66.78-38.55,66.78-38.55,0,0,73.94,42.7,106.96,61.76-12.46,57.36-53.18,106.52-106.95,129.84-29.66-12.98-55.34-33.45-74.61-59.28,4.85-2.78,32.64-18.86,38.06-21.97,10.21,12.73,22.62,23.67,36.55,32.21,23.43-14.39,42.43-35.48,54.19-60.38-13.44-7.75-54.2-31.28-54.2-31.28,0,0-63.11,36.43-92.02,53.13ZM26.12,435.29c5.7,0,10.49-1.12,14.36-3.38,3.88-2.25,6.8-5.36,8.78-9.32,1.98-3.96,2.97-8.51,2.97-13.64v-34.79h-15.82v35.52c0,3.68-.9,6.41-2.69,8.19s-4.33,2.67-7.61,2.67-5.82-.89-7.63-2.67c-1.81-1.78-2.71-4.51-2.71-8.19v-35.52H0v34.79c0,5.16.99,9.72,2.97,13.68,1.98,3.96,4.91,7.06,8.78,9.3,3.88,2.24,8.66,3.36,14.36,3.36Zm77.88-44.16c-2.68-1.62-6.11-2.44-10.3-2.44-2.45,0-4.76.45-6.92,1.35-2.17.9-4.03,2.33-5.6,4.29v-4.36h-15.56v44.03h15.56v-23.08c0-1.6.31-3.01.92-4.25.61-1.24,1.5-2.2,2.65-2.89,1.15-.68,2.53-1.03,4.12-1.03,2.51,0,4.38.7,5.62,2.09,1.24,1.4,1.86,3.35,1.86,5.86v23.3h15.56v-28.21c0-2.94-.65-5.71-1.95-8.31-1.3-2.61-3.28-4.72-5.96-6.35Zm19.92,42.88h15.56v-44.03h-15.56v44.03Zm1.39-52.39c1.81,1.5,3.94,2.24,6.39,2.24s4.58-.75,6.39-2.24c1.81-1.5,2.71-3.55,2.71-6.18s-.91-4.64-2.71-6.16c-1.81-1.51-3.94-2.27-6.39-2.27s-4.58.76-6.39,2.27c-1.81,1.51-2.71,3.56-2.71,6.16s.9,4.68,2.71,6.18Zm53.28,8.36l-7.47,27.68-7.7-27.68h-16.63l15.3,44.03h18.12l14.62-44.03h-16.24Zm31.8,42.38c-3.68-1.95-6.53-4.67-8.57-8.16-2.04-3.49-3.06-7.57-3.06-12.25,0-3.42.6-6.55,1.8-9.38,1.2-2.83,2.88-5.29,5.04-7.35,2.17-2.07,4.72-3.67,7.67-4.81s6.19-1.71,9.72-1.71c3.96,0,7.47.69,10.54,2.07s5.59,3.32,7.59,5.81c1.99,2.49,3.37,5.41,4.12,8.74.75,3.33.75,6.98-.02,10.94h-32.4c.08,1.43.59,2.68,1.52,3.76.93,1.08,2.19,1.93,3.78,2.54,1.6.61,3.43.92,5.51.92,2.65,0,5.13-.32,7.44-.96,2.31-.64,4.57-1.66,6.8-3.06l4.7,10.39c-1.34,1.03-3.1,1.95-5.28,2.76-2.18.81-4.51,1.46-6.99,1.95-2.48.48-4.83.73-7.05.73-4.9,0-9.19-.98-12.87-2.93Zm3.42-26.4h16.71c-.03-1.88-.76-3.38-2.2-4.51-1.44-1.12-3.36-1.69-5.75-1.69s-4.44.56-6.05,1.69c-1.61,1.13-2.52,2.63-2.71,4.51Zm56.64,6.16c0-2.76.79-4.82,2.37-6.18,1.58-1.35,3.6-2.03,6.05-2.03,1.11,0,2.24.11,3.4.32,1.15.21,2.23.52,3.23.92l1.8-15.95c-.74-.14-1.49-.28-2.24-.41-.76-.13-1.63-.19-2.63-.19-2.54,0-4.87.5-6.99,1.5-2.12,1-3.78,2.58-4.98,4.74v-4.87h-15.56v44.03h15.56v-21.89Zm58.84,15.97c1.67-2.27,2.5-4.91,2.5-7.93,0-3.93-1.34-6.98-4.02-9.15-2.68-2.17-7.24-3.89-13.68-5.17-2.93-.63-4.85-1.14-5.75-1.54s-1.35-1.03-1.35-1.88.53-1.51,1.6-1.97c1.07-.46,2.49-.68,4.25-.68,1.51,0,3.1.19,4.77.55,1.67.37,3.28.89,4.83,1.56,1.55.67,2.94,1.45,4.17,2.33l4.49-10.56c-2.31-1.65-5.1-2.96-8.38-3.93-3.28-.97-6.74-1.46-10.39-1.46s-7.03.61-9.9,1.82c-2.86,1.21-5.12,2.91-6.75,5.11-1.64,2.2-2.46,4.76-2.46,7.7,0,4.16,1.41,7.42,4.23,9.79s7.27,4.03,13.34,5c2.93.48,4.89.91,5.86,1.28.97.37,1.45.98,1.45,1.84,0,.97-.53,1.7-1.58,2.2-1.05.5-2.59.75-4.62.75-2.42,0-5.02-.44-7.8-1.32-2.78-.88-5.42-2.08-7.93-3.59l-4.66,10.56c2.56,1.85,5.57,3.29,9.02,4.3,3.45,1.01,7.28,1.52,11.5,1.52,3.9,0,7.34-.62,10.3-1.86,2.96-1.24,5.28-2.99,6.95-5.26Zm13.81-46.47c1.81,1.5,3.94,2.24,6.39,2.24s4.58-.75,6.39-2.24c1.81-1.5,2.71-3.55,2.71-6.18s-.9-4.64-2.71-6.16c-1.81-1.51-3.94-2.27-6.39-2.27s-4.58.76-6.39,2.27c-1.81,1.51-2.71,3.56-2.71,6.16s.9,4.68,2.71,6.18Zm14.17,8.36h-15.56v44.03h15.56v-44.03Zm43.43,42.49l-1.84-12.14c-.74.43-1.55.75-2.42.96-.87.21-1.73.32-2.59.32-1.45,0-2.68-.43-3.68-1.28-1-.86-1.5-2.34-1.5-4.45v-13.68h9.75v-12.22h-9.75v-12.53h-15.56v12.53h-8.17v12.22h8.17v16.2c0,5.59,1.43,9.8,4.3,12.63s6.83,4.25,11.91,4.25c2.25,0,4.37-.28,6.37-.83,1.99-.56,3.66-1.22,5-1.99Zm20.39,2.91c-.4,1.37-1.14,2.34-2.22,2.91-1.08.57-2.34.86-3.76.86-1.03,0-2.11-.14-3.25-.43-1.14-.29-2.18-.67-3.12-1.15l-3.25,12.95c1.68.88,3.54,1.53,5.58,1.95,2.04.41,4.12.62,6.26.62,2.76,0,5.39-.48,7.87-1.45s4.76-2.57,6.84-4.81c2.08-2.24,3.88-5.25,5.39-9.04l18-47.79h-16.42l-8.72,28.94-8.98-28.94h-16.8l17.01,44.03-.43,1.37Zm-366.27,59.48c2.09,3.54,3.14,7.41,3.14,11.63,0,3.05-.6,5.98-1.8,8.79s-2.9,5.29-5.11,7.46c-2.21,2.17-4.82,3.88-7.82,5.15-3.01,1.27-6.33,1.9-9.98,1.9-4.85,0-9.13-1.06-12.85-3.18-3.72-2.12-6.63-4.95-8.72-8.49-2.09-3.53-3.14-7.41-3.14-11.63,0-3.08.6-6.01,1.8-8.8,1.2-2.79,2.89-5.27,5.09-7.44,2.19-2.17,4.81-3.88,7.84-5.15,3.04-1.27,6.36-1.9,9.98-1.9,4.84,0,9.13,1.06,12.85,3.19s6.63,4.95,8.72,8.48Zm-12.03,11.63c0-2.05-.41-3.82-1.24-5.32-.83-1.5-1.96-2.65-3.4-3.46-1.44-.81-3.07-1.22-4.89-1.22s-3.46.41-4.89,1.22c-1.44.81-2.57,1.96-3.4,3.46-.83,1.5-1.24,3.27-1.24,5.32s.41,3.83,1.24,5.32c.83,1.5,1.97,2.65,3.42,3.46,1.45.81,3.08,1.22,4.87,1.22s3.41-.41,4.85-1.22c1.44-.81,2.58-1.97,3.42-3.46.84-1.5,1.26-3.27,1.26-5.32Zm44.43-27.06c.81-.65,1.96-.98,3.44-.98.68,0,1.4.08,2.16.23.75.16,1.53.48,2.33.96l2.18-11.76c-1.65-.8-3.31-1.37-4.98-1.71-1.67-.34-3.36-.51-5.07-.51-5.44,0-9.61,1.44-12.5,4.32-2.89,2.88-4.34,6.72-4.34,11.54v2.95h-7.31v12.22h7.31v31.8h15.56v-31.8h10.47v-12.22h-10.47v-2.14c0-1.28.41-2.25,1.22-2.91Zm67.26,13.08l-4.79-1.41c-2.19-.62-3.93-1.2-5.22-1.71-1.28-.51-2.19-1.05-2.74-1.62-.54-.57-.81-1.28-.81-2.14,0-1,.34-1.87,1.03-2.63s1.66-1.35,2.93-1.77c1.27-.43,2.74-.64,4.42-.64,1.91,0,3.8.25,5.69.75,1.88.5,3.61,1.19,5.19,2.07s2.9,1.89,3.95,3.04l7.61-11.33c-2.45-2.39-5.69-4.27-9.72-5.62-4.03-1.35-8.39-2.03-13.06-2.03-3.31,0-6.38.47-9.21,1.41-2.84.94-5.3,2.27-7.4,3.98-2.09,1.71-3.72,3.72-4.87,6.03-1.15,2.31-1.73,4.8-1.73,7.48,0,4.25,1.37,7.89,4.12,10.94,2.75,3.05,7.29,5.44,13.61,7.18l4.79,1.32c3.33.88,5.62,1.77,6.86,2.67s1.86,2.03,1.86,3.4c0,1.54-.83,2.71-2.5,3.53-1.67.81-3.8,1.22-6.39,1.22-2.05,0-4.19-.27-6.41-.81s-4.31-1.31-6.26-2.31c-1.95-1-3.54-2.17-4.77-3.51l-7.35,11.63c3.05,2.65,6.77,4.67,11.18,6.07,4.4,1.4,8.94,2.09,13.61,2.09s9.17-.83,12.8-2.48c3.63-1.65,6.44-3.96,8.42-6.93,1.98-2.96,2.97-6.38,2.97-10.26,0-4.36-1.4-7.92-4.19-10.69-2.79-2.76-7.34-5.07-13.64-6.92Zm41.4-28.73c-1.81-1.51-3.94-2.27-6.39-2.27s-4.58.76-6.39,2.27c-1.81,1.51-2.71,3.56-2.71,6.16s.9,4.68,2.71,6.18c1.81,1.5,3.94,2.24,6.39,2.24s4.58-.75,6.39-2.24c1.81-1.5,2.71-3.55,2.71-6.18s-.91-4.64-2.71-6.16Zm-14.17,64.72h15.56v-44.03h-15.56v44.03Zm71.07-28.68c.75,3.33.75,6.98-.02,10.94h-32.4c.08,1.43.59,2.68,1.52,3.76.93,1.08,2.19,1.93,3.78,2.54,1.6.61,3.43.92,5.51.92,2.65,0,5.13-.32,7.44-.96,2.31-.64,4.57-1.66,6.8-3.06l4.7,10.39c-1.34,1.03-3.1,1.95-5.28,2.76-2.18.81-4.51,1.46-6.99,1.95-2.48.48-4.83.73-7.05.73-4.9,0-9.19-.98-12.87-2.93-3.68-1.95-6.53-4.67-8.57-8.16-2.04-3.49-3.06-7.57-3.06-12.25,0-3.42.6-6.55,1.8-9.38,1.2-2.83,2.88-5.29,5.04-7.35,2.17-2.07,4.72-3.67,7.67-4.81s6.19-1.71,9.72-1.71c3.96,0,7.47.69,10.54,2.07s5.59,3.32,7.59,5.81c1.99,2.49,3.37,5.41,4.12,8.74Zm-14.73.64c-.03-1.88-.76-3.38-2.2-4.51-1.44-1.12-3.36-1.69-5.75-1.69s-4.44.56-6.05,1.69c-1.61,1.13-2.52,2.63-2.71,4.51h16.71Zm55.1-33.51h15.56v61.55h-13.29v-4.7c-1.08,1.29-2.42,2.41-4.04,3.37-2.95,1.74-6.46,2.61-10.54,2.61s-7.89-.96-11.2-2.86c-3.31-1.91-5.91-4.61-7.8-8.1-1.9-3.49-2.84-7.6-2.84-12.33,0-3.3.54-6.37,1.62-9.19,1.08-2.82,2.61-5.29,4.59-7.4,1.98-2.11,4.32-3.75,7.01-4.94,2.69-1.18,5.66-1.78,8.91-1.78s6.05.61,8.68,1.84c1.17.55,2.28,1.24,3.33,2.06v-20.14Zm.08,39.54c0-2.05-.41-3.82-1.24-5.32-.83-1.5-1.96-2.65-3.4-3.46-1.44-.81-3.07-1.22-4.89-1.22s-3.46.41-4.89,1.22c-1.44.81-2.57,1.96-3.4,3.46-.83,1.5-1.24,3.27-1.24,5.32s.41,3.83,1.24,5.32c.83,1.5,1.97,2.65,3.42,3.46s3.08,1.22,4.87,1.22,3.41-.41,4.85-1.22c1.44-.81,2.58-1.97,3.42-3.46.84-1.5,1.26-3.27,1.26-5.32Zm27.96,22.02h15.56v-61.55h-15.56v61.55Zm56.4-13.14c-1.81.76-3.71,1.13-5.71,1.13-3.33,0-5.96-.88-7.87-2.65s-2.86-4.22-2.86-7.35c0-2.14.43-3.95,1.28-5.43.85-1.48,2.07-2.62,3.65-3.4,1.58-.78,3.5-1.18,5.75-1.18,1.79,0,3.51.31,5.15.92,1.64.61,3.17,1.59,4.6,2.93l6.75-11.5c-2.37-1.85-5.02-3.25-7.97-4.21s-6.13-1.43-9.55-1.43-6.83.59-9.87,1.75c-3.05,1.17-5.71,2.81-7.97,4.92s-4.03,4.58-5.3,7.42c-1.27,2.84-1.9,5.91-1.9,9.21,0,4.45,1.07,8.42,3.21,11.93,2.14,3.5,5.06,6.28,8.76,8.31,3.7,2.04,7.89,3.06,12.57,3.06,3.25,0,6.51-.53,9.79-1.6,3.28-1.07,6.16-2.54,8.63-4.43l-6.07-11.75c-1.57,1.48-3.26,2.6-5.07,3.36Zm62.32-15.54c.75,3.33.75,6.98-.02,10.94h-32.4c.08,1.43.59,2.68,1.52,3.76.93,1.08,2.19,1.93,3.78,2.54,1.6.61,3.43.92,5.51.92,2.65,0,5.13-.32,7.44-.96,2.31-.64,4.57-1.66,6.8-3.06l4.7,10.39c-1.34,1.03-3.1,1.95-5.28,2.76-2.18.81-4.51,1.46-6.99,1.95-2.48.48-4.83.73-7.05.73-4.9,0-9.19-.98-12.87-2.93-3.68-1.95-6.53-4.67-8.57-8.16-2.04-3.49-3.06-7.57-3.06-12.25,0-3.42.6-6.55,1.8-9.38,1.2-2.83,2.88-5.29,5.04-7.35,2.17-2.07,4.72-3.67,7.67-4.81s6.19-1.71,9.72-1.71c3.96,0,7.47.69,10.54,2.07s5.59,3.32,7.59,5.81c1.99,2.49,3.37,5.41,4.12,8.74Zm-14.73.64c-.03-1.88-.76-3.38-2.2-4.51-1.44-1.12-3.36-1.69-5.75-1.69s-4.44.56-6.05,1.69c-1.61,1.13-2.52,2.63-2.71,4.51h16.71Z"/>
</svg>